<svg xmlns="http://www.w3.org/2000/svg" width="198.862" height="48.431" viewBox="0 0 198.862 48.431">
  <g id="Group_40" data-name="Group 40" transform="translate(-30 -30.285)">
    <g id="Group_3" data-name="Group 3" transform="translate(-906.001 -102.715)">
      <g id="Group_2" data-name="Group 2" transform="translate(936.001 133)">
        <path id="Path_10" data-name="Path 10" d="M157.966,106.487c-3.119-3.655-11.882-1.3-19.575,5.268l-.009.008,5.656,6.61h-2.29l-4.655-5.455c-6.8,6.351-9.922,13.9-6.984,17.341,3.119,3.654,11.884,1.3,19.576-5.269S161.085,110.14,157.966,106.487Z" transform="translate(-119.826 -94.157)" fill="#fff"/>
        <path id="Path_11" data-name="Path 11" d="M142.357,95.585l2.039,2.039h-4.091Z" transform="translate(-118.068 -95.585)" fill="#fff"/>
        <path id="Path_12" data-name="Path 12" d="M121.062,116.873l2.039-2.039v4.091Z" transform="translate(-121.062 -92.591)" fill="#fff"/>
        <path id="Path_13" data-name="Path 13" d="M163.245,116.762l-2.039,2.039V114.71Z" transform="translate(-114.817 -92.61)" fill="#fff"/>
        <path id="Path_14" data-name="Path 14" d="M142.236,137.771l2.039-2.039h-4.091Z" transform="translate(-118.087 -89.34)" fill="#fff"/>
      </g>
      <text id="QuadSAT" transform="translate(1005.863 167.863)" fill="#fff" font-size="28" font-family="Graphik-Bold, Graphik" font-weight="700"><tspan x="0" y="0">QuadSAT</tspan></text>
    </g>
  </g>
</svg>
