<svg xmlns="http://www.w3.org/2000/svg" width="138.991" height="139" viewBox="0 0 138.991 139">
  <g id="Group_1" data-name="Group 1" transform="translate(-121.062 -95.585)">
    <path id="Path_10" data-name="Path 10" d="M212.127,109.7c-8.951-10.49-34.1-3.721-56.182,15.12l-.027.023,16.234,18.971h-6.573L152.22,128.161c-19.514,18.228-28.476,39.891-20.045,49.771,8.951,10.487,34.107,3.718,56.185-15.123S221.078,120.191,212.127,109.7Z" transform="translate(18.401 21.268)" fill="#fff"/>
    <path id="Path_11" data-name="Path 11" d="M146.193,95.585l5.853,5.853h-11.74Z" transform="translate(44.578 0)" fill="#fff"/>
    <path id="Path_12" data-name="Path 12" d="M121.062,120.687l5.853-5.853v11.74Z" transform="translate(0 44.59)" fill="#fff"/>
    <path id="Path_13" data-name="Path 13" d="M167.059,120.6l-5.853,5.853V114.71Z" transform="translate(92.994 44.304)" fill="#fff"/>
    <path id="Path_14" data-name="Path 14" d="M146.072,141.585l5.853-5.853h-11.74Z" transform="translate(44.298 93)" fill="#fff"/>
  </g>
</svg>
